<svg xmlns="http://www.w3.org/2000/svg" xmlns:xlink="http://www.w3.org/1999/xlink" version="1.2" baseProfile="tiny" x="0px" y="0px" width="135px" height="55.647px" viewBox="0 0 135 55.647" xml:space="preserve"><style>.style0{fill:	#005EA5;}</style><polygon points="76.9,30 69.3,25.7 69.3,28.3 58.1,28.3 58.1,31.8 69.3,31.8 69.3,34.4" class="style0"/><polygon points="60.5,0 28.7,31.7 18.3,21.2 13.3,26.2 28.7,41.6 47.5,22.9 47.5,48.8 6.8,48.8 6.8,8.2 47.4,8.2 54.3,1.3 0,1.3 0,55.6 54.3,55.6 54.3,16 65.4,4.9" class="style0"/><path d="M87.508 8.157h40.646v40.645H87.508V8.157z M80.662 55.647H135V1.311H80.662V55.647z" class="style0"/></svg>