<svg xmlns="http://www.w3.org/2000/svg" xmlns:xlink="http://www.w3.org/1999/xlink" version="1.2" baseProfile="tiny" x="0px" y="0px" width="135px" height="80.679px" viewBox="0 0 135 80.679" xml:space="preserve"><style>.style0{fill:	#005EA5;}</style><path d="M80.293 37.109l0.002-0.514c0-0.983-0.377-1.408-1.359-1.408l-4.539-0.002 c-0.982 0.002-1.399 0.424-1.4 1.408l-0.001 0.513c0 1.914-0.515 3.131-2.06 3.129l-6.082-0.002l0.002-6.408l4.12 0 c0.984 0 1.403-0.375 1.401-1.355l0.004-3.414c-0.002-0.985-0.418-1.312-1.403-1.312l-4.118-0.001l0.003-4.256 c0-2.151 1.358-3.041 3.372-3.042c2.009 0 3.6 0.9 3.6 3.044l0.002 0.329c-0.003 1 0.4 1.4 1.4 1.4 l4.672 0.002c0.985 0 1.31-0.418 1.312-1.403v-1.682c0.002-4.028-2.848-8.003-11.033-8.008c-8.187-0.005-10.994 3.972-10.995 8 l-0.005 5.609l-2.523-0.001c-0.985-0.001-1.4 0.324-1.402 1.31l-0.003 3.415c0.003 1 0.4 1.4 1.4 1.358l2.524-0.001 l-0.002 6.407l-2.527-0.001c-0.98 0-1.399 0.325-1.399 1.308l-0.002 3.417c0 1 0.4 1.4 1.4 1.356l18.382 0 C77.434 46.3 80.3 44.2 80.3 37.1 M92.698 31.774c-0.003 6.834-2.683 13.041-7.022 17.678H47.833 c-4.344-4.642-7.025-10.858-7.023-17.704C40.819 17.4 52.5 5.8 66.8 5.819c6.93 0 13.4 2.7 18.3 7.6 C90.006 18.3 92.7 24.8 92.7 31.8 M105.811 9.794v12.452h-8.75c-1.51-4.827-4.159-9.255-7.836-12.935 C83.227 3.3 75.3 0 66.7 0C49.248 0 35 14.2 35 31.745c-0.003 6.6 2 12.6 5.4 17.707H29.19V37L0 58.8 l29.19 21.838V68.228h68.153V49.452h-4.227c1.73-2.569 3.091-5.406 4.016-8.432h8.678v12.453L135 31.633L105.811 9.794z" class="style0"/></svg>