<svg xmlns="http://www.w3.org/2000/svg" xmlns:xlink="http://www.w3.org/1999/xlink" version="1.2" baseProfile="tiny" x="0px" y="0px" width="94.249px" height="80px" viewBox="0 0 94.249 80" xml:space="preserve"><style>.style0{fill:	#005EA5;}</style><path d="M62.292 45.195c-5-1.69-15.707-5.314-15.707-5.314s-1.14-14.995-1.485-19.318 c-0.19-2.381-2.08-3.604-3.906-3.604c-1.793 0-3.524 1.18-3.524 3.604v33.959c0 0-9.87-7.504-13.373-10.184 c-1.173-0.897-2.156-1.245-2.978-1.245c-2.859 0-3.753 4.217-3.753 4.217l18.618 23.774L37.67 80h22.29 c0 0 5.352-24.104 5.943-26.748C67 48.4 64.8 46 62.3 45.2" class="style0"/><path d="M87.122 31.985c-2.164 0-3.92-1.755-3.92-3.92s1.756-3.921 3.92-3.921c2.166 0 3.9 1.8 3.9 3.9 S89.288 32 87.1 32 M87.687 0H6.562C2.944 0 0 2.9 0 6.562v43.627c0 3.6 2.9 6.6 6.6 6.561h14.446l-4.872-6.221 H6.562c-0.188 0-0.341-0.153-0.341-0.34V6.562c0-0.188 0.153-0.341 0.341-0.341h73.16v44.308H69.299 c0.027 1.065-0.092 2.202-0.361 3.403c-0.096 0.43-0.32 1.437-0.627 2.817h19.376c3.618 0 6.562-2.943 6.562-6.561V6.562 C94.249 2.9 91.3 0 87.7 0" class="style0"/></svg>