<svg xmlns="http://www.w3.org/2000/svg" xmlns:xlink="http://www.w3.org/1999/xlink" version="1.2" baseProfile="tiny" x="0px" y="0px" width="135px" height="64.37px" viewBox="0 0 135 64.37" xml:space="preserve"><style>.style0{fill:	#005EA5;}</style><path d="M129.573 32.188c0 14.753-12.002 26.755-26.756 26.755S76.061 46.9 76.1 32.2 c0-14.756 12.002-26.761 26.756-26.761S129.573 17.4 129.6 32.2 M135 32.188C135 14.4 120.6 0 102.8 0 S70.632 14.4 70.6 32.188c0 17.7 14.4 32.2 32.2 32.183S135 49.9 135 32.2" class="style0"/><path d="M102.811 34.677c7.709 0 14.7 4.3 18.2 11.128l-5.882 3.033c-2.399-4.653-7.132-7.543-12.353-7.543 s-9.951 2.889-12.344 7.541l-5.885-3.028C88.116 38.9 95.1 34.7 102.8 34.7" class="style0"/><path d="M94.43 28.768c-2.906 0-5.262-2.355-5.262-5.259c0-2.905 2.355-5.262 5.262-5.262 c2.905 0 5.3 2.4 5.3 5.262C99.688 26.4 97.3 28.8 94.4 28.8" class="style0"/><path d="M111.204 28.768c-2.906 0-5.26-2.355-5.26-5.259c0-2.905 2.354-5.262 5.26-5.262s5.258 2.4 5.3 5.3 C116.461 26.4 114.1 28.8 111.2 28.8" class="style0"/><path d="M58.94 32.188c0 14.753-12.002 26.755-26.755 26.755c-14.754 0-26.757-12.002-26.757-26.755 c0-14.756 12.003-26.761 26.757-26.761C46.938 5.4 58.9 17.4 58.9 32.2 M64.368 32.188C64.368 14.4 49.9 0 32.2 0 C14.438 0 0 14.4 0 32.188C0 49.9 14.4 64.4 32.2 64.37C49.931 64.4 64.4 49.9 64.4 32.2" class="style0"/><path d="M32.185 44.013c5.221 0 9.951-2.89 12.345-7.541l5.884 3.027C46.881 46.4 39.9 50.6 32.2 50.6 c-7.708 0-14.694-4.265-18.233-11.128l5.881-3.032C22.232 41.1 27 44 32.2 44" class="style0"/><path d="M23.797 28.768c-2.906 0-5.261-2.355-5.261-5.259c0-2.905 2.355-5.262 5.261-5.262 c2.906 0 5.3 2.4 5.3 5.262C29.056 26.4 26.7 28.8 23.8 28.8" class="style0"/><path d="M40.571 28.768c-2.906 0-5.26-2.355-5.26-5.259c0-2.905 2.354-5.262 5.26-5.262 c2.906 0 5.3 2.4 5.3 5.262C45.83 26.4 43.5 28.8 40.6 28.8" class="style0"/></svg>